<svg width="91" height="82" viewBox="0 0 91 82" fill="none" xmlns="http://www.w3.org/2000/svg">
<path fill-rule="evenodd" clip-rule="evenodd" d="M21.2123 79.2744C6.5247 74.2014 3.24933 62.3415 2.87141 48.027C2.78332 44.6925 2.85711 41.3787 2.94438 38.0463C9.42808 36.9165 15.6369 34.8358 21.3296 31.4562C24.7615 33.492 28.2386 34.9903 32.0274 36.1871C32.2911 36.2704 32.3438 36.5949 32.8973 36.5949C33.1653 36.5949 33.1093 36.5202 33.2955 36.5732C35.5268 37.2092 37.4127 37.6445 39.717 38.0463C39.927 46.0048 40.1035 55.0367 37.7543 62.6436C35.1031 71.2279 29.7583 76.4044 21.4469 79.2744H21.2123ZM33.217 47.2532C33.0282 47.0605 32.7722 46.9523 32.5054 46.9524C32.2385 46.9524 31.9826 47.0607 31.7938 47.2534L18.8755 60.4479L12.7729 54.2151C12.6796 54.1195 12.5687 54.0437 12.4466 53.992C12.3245 53.9403 12.1936 53.9136 12.0614 53.9136C11.9292 53.9136 11.7983 53.9402 11.6762 53.9919C11.5541 54.0436 11.4432 54.1194 11.3498 54.2149C11.2561 54.3105 11.1818 54.424 11.1311 54.549C11.0804 54.6739 11.0543 54.8078 11.0543 54.9431C11.0543 55.0783 11.0804 55.2123 11.1311 55.3372C11.1818 55.4622 11.2561 55.5757 11.3498 55.6713L18.1634 62.6317C18.2569 62.7275 18.368 62.8034 18.4903 62.8552C18.6127 62.907 18.7438 62.9337 18.8762 62.9337C19.0086 62.9337 19.1397 62.907 19.262 62.8552C19.3843 62.8034 19.4954 62.7275 19.589 62.6317L33.2172 48.7085C33.3109 48.613 33.3852 48.4996 33.4359 48.3747C33.4865 48.2498 33.5126 48.116 33.5126 47.9808C33.5126 47.8456 33.4865 47.7118 33.4357 47.5869C33.385 47.4621 33.3107 47.3486 33.217 47.2532ZM39.9985 24.5529V14.515C39.9993 14.3414 40.0672 14.1751 40.1874 14.0523C40.3075 13.9295 40.4703 13.8602 40.6403 13.8594H64.5439V24.5529H39.9985ZM66.5583 3.28795C66.5591 3.11432 66.627 2.94804 66.7472 2.82526C66.8674 2.70249 67.0302 2.63315 67.2001 2.63232H78.5561C78.7261 2.63315 78.8888 2.70249 79.009 2.82526C79.1292 2.94804 79.1971 3.11432 79.1979 3.28795V24.5529H66.5583V3.28795ZM18.2126 19.1008C18.2126 19.6376 17.7711 20.0665 17.3507 20.3204C16.7984 20.6541 16.1227 20.8077 15.4848 20.8077H5.17531C4.53781 20.8077 3.8623 20.6538 3.31045 20.3202C2.89022 20.0663 2.44873 19.6376 2.44873 19.1008V17.6783C2.44873 17.1419 2.89042 16.7134 3.31045 16.4597C3.86251 16.1263 4.53781 15.9724 5.17531 15.9724L14.5105 15.9782C14.6856 16.01 14.7316 16.0626 14.9325 16.0601L17.4171 16.0403C17.6916 16.1137 18.145 16.3495 18.2126 16.5775V19.1008Z" fill="#C4B5FD"/>
<path fill-rule="evenodd" clip-rule="evenodd" d="M33.4763 46.9888C33.604 47.119 33.7053 47.2737 33.7744 47.4439C33.8436 47.6142 33.8792 47.7967 33.8792 47.981C33.8792 48.1653 33.8436 48.3478 33.7744 48.5181C33.7053 48.6883 33.604 48.843 33.4763 48.9732L19.8481 62.8964C19.7205 63.0268 19.569 63.1303 19.4023 63.2008C19.2355 63.2714 19.0568 63.3077 18.8763 63.3077C18.6958 63.3077 18.5171 63.2714 18.3504 63.2008C18.1836 63.1303 18.0321 63.0268 17.9045 62.8964L11.0909 55.936C10.9632 55.8057 10.8619 55.6509 10.7928 55.4806C10.7237 55.3102 10.6881 55.1276 10.6881 54.9432C10.6881 54.7588 10.7237 54.5763 10.7928 54.4059C10.8619 54.2356 10.9632 54.0808 11.0909 53.9505C11.6256 53.4018 12.4961 53.4018 13.0323 53.9505L18.8758 59.9188L31.5352 46.9888C32.0709 46.4413 32.9414 46.4413 33.4763 46.9888ZM68.9401 46.1776V34.9506C68.9401 34.1749 69.5559 33.5468 70.3142 33.5468C71.0725 33.5468 71.6871 34.1747 71.6871 34.9506V46.1776C71.6871 46.9522 71.0725 47.5801 70.3142 47.5801C69.5559 47.5801 68.9401 46.952 68.9401 46.1776ZM57.9499 46.1776V34.9506C57.9499 34.5784 58.0946 34.2216 58.3522 33.9584C58.6098 33.6953 58.9592 33.5475 59.3234 33.5475C59.6877 33.5475 60.0371 33.6953 60.2947 33.9584C60.5522 34.2216 60.6969 34.5784 60.6969 34.9506V46.1776C60.6969 46.5496 60.5523 46.9063 60.2948 47.1693C60.0374 47.4323 59.6882 47.5801 59.324 47.5801C59.1437 47.5802 58.9651 47.544 58.7984 47.4735C58.6317 47.4031 58.4802 47.2998 58.3526 47.1696C58.225 47.0394 58.1238 46.8847 58.0547 46.7145C57.9856 46.5443 57.95 46.3619 57.9499 46.1776ZM46.9598 46.1776V34.9506C46.9597 34.7663 46.9951 34.5838 47.0641 34.4135C47.133 34.2433 47.2341 34.0885 47.3616 33.9582C47.4891 33.8278 47.6405 33.7244 47.8071 33.6538C47.9737 33.5832 48.1523 33.5469 48.3327 33.5468C48.6971 33.5469 49.0466 33.6948 49.3043 33.958C49.562 34.2213 49.7068 34.5783 49.7068 34.9506V46.1776C49.7065 46.5497 49.5616 46.9065 49.304 47.1695C49.0463 47.4325 48.6969 47.5802 48.3327 47.5801C47.9686 47.5801 47.6194 47.4323 47.362 47.1693C47.1045 46.9063 46.9599 46.5496 46.9598 46.1776ZM75.0383 69.1449C75.0383 71.2866 73.3308 73.0309 71.2309 73.0309C69.1322 73.0309 67.4247 71.2866 67.4247 69.1449C67.4247 66.9997 69.1322 65.2554 71.2309 65.2554C73.3308 65.2554 75.0383 66.9997 75.0383 69.1449ZM50.8228 69.1449C50.8228 71.2866 49.1153 73.0309 47.0166 73.0309C44.9192 73.0309 43.2104 71.2866 43.2104 69.1449C43.2104 66.9997 44.9189 65.2554 47.0166 65.2554C49.1153 65.2554 50.8228 66.9997 50.8228 69.1449ZM21.3297 78.9198C29.7374 76.0167 34.8514 70.8005 37.4051 62.5308C39.689 55.1363 39.5686 46.3062 39.3591 38.3632C37.6508 38.0647 35.9563 37.6887 34.2808 37.2363C33.9174 37.1392 33.5585 37.0365 33.1973 36.9335C33.0989 36.9566 32.9984 36.9685 32.8975 36.969C32.5294 36.969 32.1762 36.8118 31.9192 36.5445C28.0669 35.3277 24.4551 33.7431 21.3297 31.889C16.0781 35.0057 9.632 37.2599 3.30261 38.3634C3.09434 46.3064 2.97027 55.1365 5.25537 62.5311C7.81026 70.8005 12.9243 76.0167 21.3297 78.9198ZM86.635 26.986H31.256L33.8722 34.2112C36.2528 34.8996 38.4857 35.4009 40.9033 35.7709C41.5608 35.8726 42.0562 36.4414 42.0736 37.1202C42.2206 42.5504 42.3782 48.4441 41.8028 54.1405L71.9534 54.1428C74.7501 54.1428 77.1208 52.5948 78.2959 50.0015L87.854 28.938C87.9514 28.729 87.9951 28.498 87.9811 28.267C87.967 28.0359 87.8957 27.8123 87.7738 27.6171C87.652 27.4219 87.4835 27.2616 87.2843 27.1512C87.0851 27.0408 86.8616 26.9839 86.635 26.986ZM40.3651 14.5149C40.3651 14.3613 40.4914 14.2335 40.6406 14.2335H64.1777V24.1787H40.3651V14.5149ZM67.2003 3.00643H78.5563C78.7057 3.00643 78.8318 3.13422 78.8318 3.28789V24.1787H66.9247V3.28789C66.9247 3.13422 67.0509 3.00643 67.2003 3.00643ZM17.8465 16.6908V19.1008C17.8465 19.7169 16.8151 20.4335 15.485 20.4335H5.17545C3.8465 20.4335 2.81514 19.7169 2.81514 19.1008V17.6782C2.81514 17.0633 3.8465 16.3467 5.17545 16.3467H14.4466C14.5636 16.368 14.6414 16.4363 14.9374 16.4342L17.3243 16.4023C17.6114 16.4791 17.7956 16.6127 17.8465 16.6908ZM71.9534 56.9493C75.8475 56.9493 79.1512 54.7934 80.7892 51.1831L90.3474 30.1186C91.6085 27.3428 89.6271 24.1787 86.635 24.1787H81.5786V3.28789C81.5786 1.58494 80.2231 0.200195 78.5563 0.200195H67.2003C65.5332 0.200195 64.1777 1.58494 64.1777 3.28789V11.4272H40.6406C38.9726 11.4272 37.6181 12.812 37.6181 14.5149V24.1787H30.2418L28.0041 18C27.0214 15.2837 24.5673 13.5394 21.7381 13.5394C21.7091 13.5394 21.6778 13.5394 21.649 13.5417L17.5695 13.5937C17.3427 13.5586 17.1137 13.5404 16.8842 13.5392H5.17545C2.31152 13.5392 0.0668945 15.3581 0.0668945 17.6782V19.1008C0.0668945 21.4209 2.31152 23.2397 5.17545 23.2397H15.485C18.3499 23.2397 20.5933 21.4209 20.5933 19.1008L20.5772 16.3609L21.7383 16.3467C23.4294 16.3467 24.8395 17.3496 25.4276 18.9732L30.5498 33.1259C27.4441 31.9978 24.5571 30.6201 22.0451 29.0579C21.8297 28.9239 21.5824 28.8531 21.3302 28.8531C21.0781 28.8531 20.8308 28.9239 20.6154 29.0579C15.2143 32.4141 8.37745 34.7599 1.75823 35.7711C1.4392 35.8201 1.14716 35.982 0.933212 36.2287C0.719261 36.4753 0.597025 36.791 0.587889 37.1204C0.358766 45.5802 0.100619 55.1684 2.63569 63.3752C5.48327 72.5943 11.4611 78.5993 20.907 81.7319C21.1828 81.823 21.4797 81.823 21.7555 81.7319C30.56 78.811 36.3492 73.3937 39.4018 65.2057C40.0062 65.2863 41.049 65.2554 41.6857 65.2554C38.599 69.669 41.6924 75.8369 47.0164 75.8369C52.3537 75.8369 55.4275 69.6487 52.3459 65.2554H65.9012C62.8198 69.6483 65.8932 75.8369 71.2307 75.8369C76.5563 75.8369 79.6473 69.6682 76.5614 65.2554H81.8053C82.5658 65.2554 83.1794 64.6276 83.1794 63.8529C83.1794 63.0783 82.5658 62.4492 81.8053 62.4492H40.2979C40.798 60.6659 41.1741 58.8247 41.4555 56.948L71.9534 56.9493Z" fill="#8B5CF6"/>
</svg>
