<svg width="10" height="5" viewBox="0 0 10 5" fill="none" xmlns="http://www.w3.org/2000/svg">
<path d="M5 5C4.88042 5 4.76472 4.98092 4.65291 4.94275C4.54051 4.90458 4.44694 4.85369 4.3722 4.79008L0.246636 1.27863C0.0822119 1.13868 0 0.960559 0 0.744274C0 0.527989 0.0822119 0.349872 0.246636 0.209923C0.411061 0.0699743 0.620329 0 0.874439 0C1.12855 0 1.33782 0.0699743 1.50224 0.209923L5 3.18702L8.49776 0.209923C8.66218 0.0699743 8.87145 0 9.12556 0C9.37967 0 9.58894 0.0699743 9.75336 0.209923C9.91779 0.349872 10 0.527989 10 0.744274C10 0.960559 9.91779 1.13868 9.75336 1.27863L5.6278 4.79008C5.53812 4.86641 5.44096 4.92036 5.33632 4.95191C5.23169 4.98397 5.11958 5 5 5Z" fill="#5DB7DE"/>
</svg>
